<svg xmlns="http://www.w3.org/2000/svg" viewBox="0 0 55 55"><defs><style>.a{fill:#fff;}</style></defs><path class="a" d="M55,27.5A27.5,27.5,0,1,0,8.926,47.758l-.026.023.892.752c.058.049.121.089.179.137.474.393.965.766,1.465,1.127.162.117.324.234.489.348q.8.552,1.642,1.048c.122.072.245.142.368.212.613.349,1.239.678,1.88.98l.142.064a27.252,27.252,0,0,0,6.651,2.1l.184.033c.724.125,1.456.225,2.2.292.09.008.18.013.271.021.738.061,1.484.1,2.24.1s1.488-.039,2.222-.1L30,54.881q1.1-.1,2.178-.287l.187-.034a27.251,27.251,0,0,0,6.557-2.055c.076-.035.153-.068.229-.1q.926-.435,1.811-.936.22-.125.439-.253c.538-.317,1.067-.648,1.581-1,.185-.126.366-.259.549-.391.439-.316.87-.642,1.289-.983.093-.075.193-.14.284-.217l.915-.764-.027-.023A27.429,27.429,0,0,0,55,27.5Zm-53,0A25.5,25.5,0,1,1,44.411,46.563a7.494,7.494,0,0,0-.893-.537l-8.467-4.233A2.217,2.217,0,0,1,33.819,39.8V36.843c.2-.242.4-.516.617-.817A20.378,20.378,0,0,0,37.052,30.9a3.629,3.629,0,0,0,2.085-3.289V24.069A3.638,3.638,0,0,0,38.25,21.7V17.033a8.066,8.066,0,0,0-1.883-5.864C34.524,9.065,31.541,8,27.5,8s-7.024,1.065-8.867,3.168a8.066,8.066,0,0,0-1.883,5.864V21.7a3.644,3.644,0,0,0-.887,2.369v3.545a3.638,3.638,0,0,0,1.34,2.821A18.79,18.79,0,0,0,20.3,36.823v2.894a2.231,2.231,0,0,1-1.162,1.958l-7.907,4.313a7.227,7.227,0,0,0-.752.476A25.439,25.439,0,0,1,2,27.5ZM42.459,48.132q-.525.381-1.067.735c-.166.108-.331.216-.5.321-.472.292-.952.57-1.442.83-.108.057-.217.111-.326.167a25.481,25.481,0,0,1-3.488,1.476l-.127.043q-.94.312-1.9.552H33.6c-.648.16-1.3.293-1.964.4l-.054.01c-.621.1-1.247.174-1.875.229-.111.01-.222.017-.334.025-.621.047-1.245.077-1.872.077s-1.266-.031-1.9-.078c-.109-.008-.218-.015-.326-.025-.634-.056-1.265-.131-1.89-.233l-.084-.015a25.4,25.4,0,0,1-3.89-.971l-.118-.04q-.943-.321-1.862-.713l-.013-.006c-.578-.249-1.145-.525-1.7-.816-.073-.038-.147-.074-.219-.113-.511-.273-1.011-.568-1.5-.876q-.219-.138-.435-.279c-.454-.3-.9-.606-1.338-.933-.045-.034-.088-.07-.133-.1l.1-.054,7.907-4.313a4.229,4.229,0,0,0,2.2-3.714v-3.6l-.23-.278a16.7,16.7,0,0,1-3-6.216l-.091-.4L18.632,29a1.657,1.657,0,0,1-.769-1.392V24.067a1.633,1.633,0,0,1,.557-1.223l.33-.3v-5.57l-.009-.131a6.023,6.023,0,0,1,1.4-4.36C21.583,10.837,24.061,10,27.5,10s5.9.83,7.346,2.466a6.123,6.123,0,0,1,1.413,4.381l-.009,5.7.33.3a1.635,1.635,0,0,1,.557,1.223v3.545a1.67,1.67,0,0,1-1.181,1.575l-.5.153-.16.5a18.5,18.5,0,0,1-2.5,5.032c-.262.37-.517.7-.736.949l-.248.283v3.7a4.2,4.2,0,0,0,2.338,3.782l8.467,4.233c.054.027.107.055.16.083C42.677,47.979,42.567,48.054,42.459,48.132Z"/></svg>