<svg xmlns="http://www.w3.org/2000/svg" viewBox="0 0 52.971 52.909"><defs><style>.a{fill:none;stroke:#fff;stroke-width:3px;}</style></defs><g transform="translate(1.471 1.106)"><g transform="translate(0 0.394)"><g transform="translate(0 0)"><path class="a" d="M48.879,39.852l-7.722-7.723a4.026,4.026,0,0,0-5.677.107l-3.89,3.889c-.246-.135-.5-.277-.768-.427a38.713,38.713,0,0,1-9.357-6.768,38.929,38.929,0,0,1-6.781-9.374c-.144-.26-.282-.512-.418-.75L16.876,16.2l1.284-1.285a4.023,4.023,0,0,0,.1-5.677L10.542,1.514a4.022,4.022,0,0,0-5.677.107L2.689,3.81l.059.059A12.584,12.584,0,0,0,.955,7.032a13.114,13.114,0,0,0-.8,3.208C-.862,18.693,3,26.418,13.483,36.9,27.974,51.39,39.651,50.3,40.155,50.242a13.047,13.047,0,0,0,3.217-.808,12.542,12.542,0,0,0,3.152-1.786l.048.042,2.2-2.159A4.03,4.03,0,0,0,48.879,39.852Z" transform="translate(0 -0.394)"/></g></g></g></svg>